<svg xmlns="http://www.w3.org/2000/svg" viewBox="0 0 256.5 54.01"><defs><style>.cls-1{fill:#f0ab00;}.cls-2{fill:#fff;}</style></defs><g id="Layer_2" data-name="Layer 2"><g id="Logo"><path id="gazelle" class="cls-1" d="M256.36,25.77a1.31,1.31,0,0,0-1-.63c-.24,0-2.19-.13-4-.16-.39,0-1.44,0-2,0a.43.43,0,0,1-.23,0,.35.35,0,0,1-.16-.19,17.86,17.86,0,0,0-1-2.59c-.42-.76-.93-1.46-1.31-2.19a9.06,9.06,0,0,1-.72-1.51c0-.22,1.64.53,1.78.6a3.32,3.32,0,0,0,.8.21c.22,0,.39,0,.83-.39a1.44,1.44,0,0,0,.51-1.34,3.42,3.42,0,0,0-.64-1.19,5.36,5.36,0,0,1-.73-1.23,18.14,18.14,0,0,0-1.13-2.95,4.82,4.82,0,0,0-2-1.66,11,11,0,0,0-1.69-.72c-1-4.08-2.34-5.81-5.88-6.81-3.24-.91-5-1.43-6.37-2.75C231.24,0,231,0,230.87,0s-.18.34-.06.56c.84,1.63,3.05,3,6.08,4.07,2.26.82,3.51,2.11,3.8,4.07a5,5,0,0,1-1.52-.4c-.24-.05-.35-.06-.44,0a.3.3,0,0,0-.07.33,8.4,8.4,0,0,0,.69,2.06c.45.83.58,1.05.73,1.28a34.77,34.77,0,0,0-.37,5,51.27,51.27,0,0,1-.19,5.85s-.33.32-1.12,1A88.21,88.21,0,0,1,231.22,29a49.28,49.28,0,0,1-10.43,4.85c-1.51.41-1.75.43-1.81.67s.08.26.33.36,2.3.84,2.29,1.2c0,.94-.87,1.92-1.38,3.46a4.67,4.67,0,0,1-2.1,2.23c-.46.29-.92.54-1.29.75a2.79,2.79,0,0,0-.86.61,7.92,7.92,0,0,1-1.3,2.07c-.87.85-1.72,1.84-2.36,2.51s-1.54,2.55-2.1,3.08a2.55,2.55,0,0,1-.89.56c-.22.08-.74.16-.84.47a2.76,2.76,0,0,0-.21,1.65A.67.67,0,0,0,209,54a.82.82,0,0,0,.47-.17A11.91,11.91,0,0,0,211.55,52c2.07-2.33,4.26-5.54,6-6.77s6.9-3.11,9.17-4.59a24.38,24.38,0,0,0,3.39-2.92c.5-.5.94-1,1.27-1.3l.41-.39.1-.09a44.45,44.45,0,0,0,10.6-2A10.83,10.83,0,0,0,247,30.89c.73-.84,1.67-2.29,1.83-2.35a6,6,0,0,1,.67-.16,14.58,14.58,0,0,1,2.83-.21h.28s-1,1.48-1.4,2a5.79,5.79,0,0,1-1.44,1.31,3.72,3.72,0,0,0-1.22,1A3.1,3.1,0,0,1,247,33.9c-1.32.61-1.56,1-1.5,1.42s.41,1.37.81,1.4a2.52,2.52,0,0,0,1.13-.46,51.25,51.25,0,0,0,5.61-5,34.22,34.22,0,0,0,3.33-4.44A1.33,1.33,0,0,0,256.36,25.77Z"/><path class="cls-2" d="M0,33.6l4-2.35a7.07,7.07,0,0,0,6.45,4.07c2.42,0,4.17-.91,4.17-2.75S12.89,30,9.75,29.11C5.49,27.92,1,26.82,1,21.81c0-4.46,3.49-7.14,8.63-7.14a10.75,10.75,0,0,1,9.5,4.91L15.5,22.36A7.12,7.12,0,0,0,9.63,19c-2.23,0-3.46,1-3.46,2.39,0,1.91,1.78,2.58,4.91,3.46,4.2,1.13,8.65,2.45,8.65,7.39,0,3.85-2.9,7.27-9.55,7.27C5,39.48,1.78,37,0,33.6ZM20.7,39l8.46-24h5l8.46,24H37.31L35.52,33.7H27.39L25.54,39Zm8-9.14H34.3l-2.75-8.14h-.06ZM45.28,39V15.13H54c5.1,0,9.76,1.35,9.76,7.65s-5,7.75-9.83,7.75H50.52V39Zm5.24-12.57H54.1c3.26,0,4.49-1.25,4.49-3.55s-1.19-3.49-4.49-3.49H50.52ZM0,33.6l4-2.35a7.07,7.07,0,0,0,6.45,4.07c2.42,0,4.17-.91,4.17-2.75S12.89,30,9.75,29.11C5.49,27.92,1,26.82,1,21.81c0-4.46,3.49-7.14,8.63-7.14a10.75,10.75,0,0,1,9.5,4.91L15.5,22.36A7.12,7.12,0,0,0,9.63,19c-2.23,0-3.46,1-3.46,2.39,0,1.91,1.78,2.58,4.91,3.46,4.2,1.13,8.65,2.45,8.65,7.39,0,3.85-2.9,7.27-9.55,7.27C5,39.48,1.78,37,0,33.6ZM20.7,39l8.46-24h5l8.46,24H37.31L35.52,33.7H27.39L25.54,39Zm8-9.14H34.3l-2.75-8.14h-.06ZM45.28,39V15.13H54c5.1,0,9.76,1.35,9.76,7.65s-5,7.75-9.83,7.75H50.52V39Zm5.24-12.57H54.1c3.26,0,4.49-1.25,4.49-3.55s-1.19-3.49-4.49-3.49H50.52ZM73,33.6l4-2.36a7.09,7.09,0,0,0,6.46,4.08c2.42,0,4.16-.91,4.16-2.75S85.87,30,82.74,29.11C78.47,27.92,74,26.82,74,21.81c0-4.46,3.49-7.14,8.62-7.14a10.75,10.75,0,0,1,9.5,4.91l-3.65,2.78A7.13,7.13,0,0,0,82.61,19c-2.23,0-3.46,1-3.46,2.39,0,1.91,1.78,2.58,4.91,3.46,4.2,1.13,8.66,2.45,8.66,7.39,0,3.85-2.91,7.27-9.56,7.27C78,39.48,74.76,37,73,33.6ZM96.31,15.29h5.23v4.16H96.31Zm0,6.52h5.17V39H96.34Zm7.17,19.8c0-1.68,1.39-2.81,3-3.45a2.37,2.37,0,0,1-1.16-2.07c0-1.42,1.13-2.65,2.49-3.52A5.52,5.52,0,0,1,105,27.63c0-3.46,2.77-6.17,7.75-6.17a8.44,8.44,0,0,1,5.78,1.87,8.32,8.32,0,0,1,4.43-1.78v4a11.76,11.76,0,0,0-2.91.38,4.51,4.51,0,0,1,.32,1.72c0,3.49-2.68,6.13-7.62,6.13a12.42,12.42,0,0,1-2.65-.29c-.36.29-.58.55-.58.88,0,.64.68.77,1.94.84l2.58.16c5.91.22,8.3,1.65,8.3,4.88,0,3.55-4.16,5.26-9.88,5.26C105.71,45.49,103.51,44,103.51,41.61Zm14.25-.51c0-1.07-.52-1.55-4.59-1.75l-2.71-.13-1.13-.09a1.86,1.86,0,0,0-1,1.55c0,1.48,1.39,2.19,4.91,2.19C115.92,42.87,117.76,42.23,117.76,41.1Zm-2-13.28a2.94,2.94,0,1,0-5.88,0,2.94,2.94,0,1,0,5.88,0Zm9.82-6h5.21v2.72a7.35,7.35,0,0,1,5.94-3.07c2.91,0,5,1.45,5,5V39h-5.17V28.11c0-1.55-.58-2.36-2-2.36a5.75,5.75,0,0,0-3.74,1.72V39h-5.21Zm18.81,12.83c0-4,3.36-6.17,10.92-6.79v-.42c0-1.26-.65-2.06-2.33-2.06a9.13,9.13,0,0,0-5.65,2.13l-2.2-3a12,12,0,0,1,8.59-3.07c4.72,0,6.66,2.32,6.66,6.75v6.62a11.89,11.89,0,0,0,.48,4.2h-5.17a8.46,8.46,0,0,1-.38-2.52,7.62,7.62,0,0,1-6,2.78A4.59,4.59,0,0,1,144.35,34.64Zm10.92-.75V30.7c-4.11.42-5.85,1.45-5.85,3,0,1.1.77,1.65,1.9,1.65A5.33,5.33,0,0,0,155.27,33.89Zm6.49-12.08h5.36l3.62,11.47h.06l3.62-11.47h4.88l-6.14,17.25h-5.23Zm19.64-6.52h5.24v4.16H181.4Zm0,6.52h5.17V39h-5.17Zm8.37,8.63c0-6.75,4.62-9,8.82-9s8.79,2.23,8.79,9-4.62,9-8.79,9S189.8,37.12,189.8,30.44Zm12.41,0c0-2.87-1-5.2-3.59-5.2s-3.62,2.1-3.62,5.2c0,2.87,1,5.27,3.62,5.27C201.08,35.74,202.21,33.6,202.21,30.47Z"/></g></g></svg>